<?xml version="1.0" standalone="no"?>
<!DOCTYPE svg PUBLIC "-//W3C//DTD SVG 1.1//EN" "http://www.w3.org/Graphics/SVG/1.1/DTD/svg11.dtd" >
<svg xmlns="http://www.w3.org/2000/svg" xmlns:xlink="http://www.w3.org/1999/xlink" version="1.1">
<metadata>
Created by FontForge 20150827 at Mon Apr 18 01:54:50 2016
 By Morss
Copyright Snorgg 2016. All rights reserved.
</metadata>
<defs>
<font id="FontVisGraph" horiz-adv-x="2048" >
  <font-face 
    font-family="FontVisGraph"
    font-weight="400"
    font-stretch="normal"
    units-per-em="2048"
    panose-1="0 0 0 0 0 0 0 0 0 0"
    ascent="1755"
    descent="-293"
    bbox="-5 -303 2063 1765"
    underline-thickness="0"
    underline-position="0"
    unicode-range="U+0020-F500"
  />
<missing-glyph horiz-adv-x="1024" 
d="M256 128h512v1499h-512v-1499zM128 0v1755h768v-1755h-768z" />
    <glyph glyph-name=".notdef" horiz-adv-x="1024" 
d="M256 128h512v1499h-512v-1499zM128 0v1755h768v-1755h-768z" />
    <glyph glyph-name=".null" horiz-adv-x="0" 
 />
    <glyph glyph-name="nonmarkingreturn" horiz-adv-x="682" 
 />
    <glyph glyph-name="space" unicode=" " horiz-adv-x="512" 
 />
    <glyph glyph-name="uni00A0" unicode="&#xa0;" horiz-adv-x="512" 
 />
    <glyph glyph-name="dieresis" unicode="&#xa8;" 
 />
    <glyph glyph-name="copyright" unicode="&#xa9;" 
 />
    <glyph glyph-name="registered" unicode="&#xae;" 
 />
    <glyph glyph-name="acute" unicode="&#xb4;" 
 />
    <glyph glyph-name="AE" unicode="&#xc6;" 
 />
    <glyph glyph-name="Oslash" unicode="&#xd8;" 
 />
    <glyph glyph-name="uni2000" unicode="&#x2000;" horiz-adv-x="877" 
 />
    <glyph glyph-name="uni2001" unicode="&#x2001;" horiz-adv-x="1756" 
 />
    <glyph glyph-name="uni2002" unicode="&#x2002;" horiz-adv-x="877" 
 />
    <glyph glyph-name="uni2003" unicode="&#x2003;" horiz-adv-x="1756" 
 />
    <glyph glyph-name="uni2004" unicode="&#x2004;" horiz-adv-x="585" 
 />
    <glyph glyph-name="uni2005" unicode="&#x2005;" horiz-adv-x="438" 
 />
    <glyph glyph-name="uni2006" unicode="&#x2006;" horiz-adv-x="292" 
 />
    <glyph glyph-name="uni2007" unicode="&#x2007;" horiz-adv-x="292" 
 />
    <glyph glyph-name="uni2008" unicode="&#x2008;" horiz-adv-x="219" 
 />
    <glyph glyph-name="uni2009" unicode="&#x2009;" horiz-adv-x="350" 
 />
    <glyph glyph-name="uni200A" unicode="&#x200a;" horiz-adv-x="97" 
 />
    <glyph glyph-name="uni202F" unicode="&#x202f;" horiz-adv-x="350" 
 />
    <glyph glyph-name="uni205F" unicode="&#x205f;" horiz-adv-x="438" 
 />
    <glyph glyph-name="trademark" unicode="&#x2122;" 
 />
    <glyph glyph-name="infinity" unicode="&#x221e;" 
 />
    <glyph glyph-name="notequal" unicode="&#x2260;" 
 />
    <glyph glyph-name="uni25FC" unicode="&#x25fc;" horiz-adv-x="571" 
d="M0 0z" />
    <glyph glyph-name="user" unicode="&#xf000;" horiz-adv-x="2045" 
d="M890 1698q27 -30 79 -41t103.5 0.5t79.5 40.5q25 28 61.5 32t67 -15t41.5 -55q9 -29 36.5 -56t62 -42.5t72 -21.5t65.5 7q38 12 70.5 1.5t52.5 -42t14 -68.5q-6 -40 17.5 -87.5t64.5 -81t81 -36.5q39 -2 65.5 -28t29 -60t-18.5 -69q-17 -25 -20.5 -63t4.5 -75t28 -69.5
t46 -47.5q35 -20 48 -53.5t0 -67.5t-47 -54q-27 -15 -46.5 -47.5t-28 -69.5t-5 -75t21.5 -63q22 -36 20 -70t-28.5 -59.5t-67.5 -28.5q-40 -3 -81 -36.5t-64.5 -80.5t-17.5 -87q10 -63 -34.5 -97.5t-102.5 -12.5q-28 13 -65.5 7t-72 -22t-62 -42.5t-35.5 -55.5
q-12 -41 -41.5 -61.5t-65 -15t-63.5 37.5q-28 30 -79.5 41t-103.5 0t-79 -41q-29 -32 -64.5 -37.5t-64.5 15t-42 60.5q-8 29 -35.5 56t-62 42.5t-72 21.5t-66.5 -6q-59 -24 -102.5 10.5t-33.5 98.5q6 40 -17.5 87t-64.5 80.5t-82 36.5t-67.5 28t-28.5 59t20 70
q18 25 21.5 63t-5 75t-28 69.5t-46.5 47.5q-34 20 -47 54t-0.5 68t47.5 53q26 15 46 48t28.5 70t4.5 75t-21 63q-22 35 -19.5 69t29 59.5t66.5 28.5t81 36.5t64.5 81t17.5 87.5q-9 57 36.5 93.5t99.5 15.5q29 -13 66.5 -7t72 22t61.5 43t36 56q11 36 41.5 55.5t67 15
t61.5 -32.5z" />
    <glyph glyph-name="project" unicode="&#xf001;" horiz-adv-x="2057" 
d="M1029 1765q141 0 275 -37t247.5 -103.5t209 -162t162 -209t103.5 -247.5t37 -275t-37 -275t-103.5 -247.5t-162 -209t-209 -162t-247.5 -103.5t-275 -37t-275 37t-247.5 103.5t-209 162t-162 209t-103.5 247.5t-37 275t37 275t103.5 247.5t162 209t209 162t247.5 103.5
t275 37zM1029 1605q-119 0 -232.5 -31t-209 -87.5t-176.5 -137.5t-137.5 -176.5t-87.5 -209t-31 -232.5t31 -232.5t87.5 -209t137.5 -176.5t176.5 -137.5t209 -88t232.5 -31.5t232.5 31.5t209 88t176.5 137.5t137.5 176.5t88 209t31.5 232.5t-31.5 232.5t-88 209
t-137.5 176.5t-176.5 137.5t-209 87.5t-232.5 31zM719 1094.5q0 128.5 91 219t219 90.5t219 -90.5t91 -219t-91 -219t-219 -90.5t-219 90.5t-91 219zM409 399q134 130 292 200t328 70t328 -70t292 -200q-90 -168 -256 -269.5t-364 -101.5t-364 101.5t-256 269.5z" />
    <glyph glyph-name="_537" unicode="&#xf23c;" 
 />
    <glyph glyph-name="_538" unicode="&#xf23d;" 
 />
    <glyph glyph-name="_539" unicode="&#xf23e;" 
 />
    <glyph glyph-name="lessequal" unicode="&#xf500;" 
 />
    <glyph glyph-name="uniF002" unicode="&#xf002;" 
d="M717.21 1091.04q0 127.077 89.8567 216.934q89.8567 89.8571 216.933 89.8571t216.933 -89.8571q89.8567 -89.8571 89.8567 -216.934q0 -127.077 -89.8567 -216.933t-216.933 -89.8567t-216.933 89.8567t-89.8567 216.933zM409.805 402.706
q133.431 128.269 289.751 197.357t324.444 69.0877q57.8106 0 116.94 -8.80664q-55.7887 -51.7146 -87.1839 -122.021q-31.3952 -70.3062 -31.3952 -149.339q0 -104.427 53.6442 -191.778q53.6442 -87.3509 142.759 -134.878q-94.8841 -27.6484 -194.765 -27.6484
q-196.204 0 -360.42 100.472q-164.216 100.472 -253.775 267.555zM1305.6 619.384q0 35.9075 25.4032 61.2692q25.4032 25.3617 61.2277 25.3617q35.9068 0 61.2684 -25.4032q25.3615 -25.4032 25.3615 -61.2276v-143.564h143.565q35.9068 0 61.2684 -25.4032
t25.3615 -61.2276q0 -35.9068 -25.4031 -61.2683q-25.4031 -25.3616 -61.2268 -25.3616h-143.565v-143.565q0 -35.9069 -25.4028 -61.2684q-25.4028 -25.3615 -61.2271 -25.3615q-35.9069 0 -61.2689 25.4031q-25.362 25.4031 -25.362 61.2268v143.565h-143.564
q-35.9068 0 -61.2683 25.4031q-25.3616 25.4031 -25.3616 61.2268q0 35.9076 25.4027 61.2692q25.4027 25.3616 61.2271 25.3616h143.564v143.564zM729.088 1536.89l-55.9102 154.829q37.4216 13.1859 64.7168 21.0947q46.0597 13.2028 92.5693 22.3232
q46.9742 9.09108 95.4365 13.7217q47.1655 4.39317 98.0996 4.70996v-164.659q-46.4856 0 -93.1836 -4.91504q-53.6764 -6.13386 -105.677 -18.2275q-49.5611 -12.0805 -96.0518 -28.877zM184.729 573.304l-161.587 -30.9248q-21.848 112.534 -17.4082 233.677
q2.43658 61.5141 12.2881 123.085l162.406 -27.0332q-7.42216 -46.5947 -9.83008 -92.3652q-5.32289 -105.523 14.1309 -206.438zM1299.05 1543.85l-0.205078 -0.410156l53.8623 155.648q35.4529 -12.129 69.0176 -26.2148q43.7536 -18.3766 89.4971 -43.0078
q64.1812 -34.9527 124.314 -79.667q9.87689 -7.40816 29.0811 -22.5283l-103.219 -128.205q-40.0549 32.1649 -83.9688 59.8018q-43.0134 26.4947 -86.4248 47.3086q-42.6095 20.2916 -91.9551 37.2744zM1758.21 1174.6v-0.205078l141.312 84.7881
q93.7583 -155.132 128.205 -332.596l-161.792 -30.9248q-29.0855 148.489 -107.725 278.938zM1871.05 596.446v0.410156l162.611 -26.0098q-18.4293 -117.521 -65.5361 -231.834q-22.4592 -53.7189 -50.9951 -105.268l-143.77 80.2822q28.6202 51.2142 50.5859 107.52
q33.2286 86.5237 47.1035 174.899zM1584.74 82.1934l106.906 -125.337q-138.548 -119.158 -306.177 -182.478l-57.5488 154.42q77.1177 29.3341 149.3 74.1367q56.3703 35.4592 107.52 79.2578zM1034.24 -126.702l1.22852 -165.069h-4.91504h-6.55371
q-39.2754 0.304877 -78.6436 3.07227q-41.0238 3.29407 -83.3535 9.83008q-47.837 7.71579 -93.5938 19.4561q-43.6441 11.2232 -84.377 25.6006l54.6816 155.443q47.1078 -16.3074 96.4609 -27.6484q86.4303 -19.1408 177.562 -20.6846h11.0586h5.53027h4.91504z
M478.413 68.8818l-104.857 -127.181q-19.9705 16.3849 -46.4902 40.7549q-37.4711 35.074 -72.499 74.752q-65.231 75.0471 -112.64 155.853l142.336 82.9443q57.3694 -97.438 140.288 -178.79q27.8032 -27.1419 53.8623 -48.333zM278.938 1156.98l-142.745 82.124
q57.514 100.804 139.059 188.621q44.7456 47.6631 89.498 85.1973l105.677 -126.362l-0.205078 -0.204102q-35.0094 -29.5767 -67.3789 -63.4883q-72.9335 -76.6889 -123.904 -165.888z" />
    <glyph glyph-name="uniF004" unicode="&#xf004;" horiz-adv-x="2057" 
d="M719 1094.5q0 128.5 91 219t219 90.5t219 -90.5t91 -219t-91 -219t-219 -90.5t-219 90.5t-91 219zM409 399q134 130 292 200t328 70t328 -70t292 -200q-90 -168 -256 -269.5t-364 -101.5t-364 101.5t-256 269.5z" />
    <glyph glyph-name="uniF005" unicode="&#xf005;" 
d="M717.21 1091.04q0 127.077 89.8567 216.934q89.8567 89.8571 216.933 89.8571t216.933 -89.8571q89.8567 -89.8571 89.8567 -216.934q0 -127.077 -89.8567 -216.933t-216.933 -89.8567t-216.933 89.8567t-89.8567 216.933zM409.805 402.706
q133.431 128.269 289.751 197.357t324.444 69.0877q57.8106 0 116.94 -8.80664q-55.7887 -51.7146 -87.1839 -122.021q-31.3952 -70.3062 -31.3952 -149.339q0 -104.427 53.6442 -191.778q53.6442 -87.3509 142.759 -134.878q-94.8841 -27.6484 -194.765 -27.6484
q-196.204 0 -360.42 100.472q-164.216 100.472 -253.775 267.555zM1305.6 619.384q0 35.9075 25.4032 61.2692q25.4032 25.3617 61.2277 25.3617q35.9068 0 61.2684 -25.4032q25.3615 -25.4032 25.3615 -61.2276v-143.564h143.565q35.9068 0 61.2684 -25.4032
t25.3615 -61.2276q0 -35.9068 -25.4031 -61.2683q-25.4031 -25.3616 -61.2268 -25.3616h-143.565v-143.565q0 -35.9069 -25.4028 -61.2684q-25.4028 -25.3615 -61.2271 -25.3615q-35.9069 0 -61.2689 25.4031q-25.362 25.4031 -25.362 61.2268v143.565h-143.564
q-35.9068 0 -61.2683 25.4031q-25.3616 25.4031 -25.3616 61.2268q0 35.9076 25.4027 61.2692q25.4027 25.3616 61.2271 25.3616h143.564v143.564z" />
    <glyph glyph-name="uniF007" unicode="&#xf007;" 
d="M549.888 1273.52q0 90.3328 35.163 172.557q35.163 82.2238 94.6131 141.674q59.4502 59.45 141.674 94.6128q82.2239 35.1628 172.557 35.1628q90.3328 0 172.557 -35.1628q82.2237 -35.1628 141.674 -94.6128q59.45 -59.45 94.6128 -141.674
q35.1628 -82.2237 35.1628 -172.557q0 -90.3331 -35.1628 -172.557q-35.1628 -82.2239 -94.6128 -141.674q-59.45 -59.4501 -141.674 -94.6129t-172.557 -35.1628q-90.3328 0 -172.557 35.1628q-82.2239 35.1628 -141.674 94.6129q-59.4502 59.4501 -94.6131 141.674
q-35.163 82.224 -35.163 172.557zM105.062 277.163q192.755 185.562 419.082 285.6t469.75 100.038q85.1346 0 169.369 -12.6982q-80.6865 -74.733 -126.154 -176.595q-45.4678 -101.862 -45.4678 -216.211q0 -151.138 77.648 -277.62t206.615 -195.264
q-137.421 -39.9355 -281.805 -39.9355q-284.08 0 -521.787 145.393q-237.707 145.393 -367.25 387.291zM1401.65 590.712q0 51.9523 36.7536 88.7477q36.7536 36.7953 88.7884 36.7953q51.9524 0 88.7477 -36.7538q36.7953 -36.7538 36.7953 -88.7892v-207.872h207.872
q51.9517 0 88.7468 -36.7537q36.7952 -36.7537 36.7952 -88.7883q0 -51.9523 -36.7536 -88.7477t-88.7884 -36.7953h-207.872v-207.872q0 -51.9518 -36.7538 -88.7469q-36.7538 -36.7951 -88.7892 -36.7951q-51.9517 0 -88.7468 36.7537q-36.7952 36.7537 -36.7952 88.7883
v207.872h-207.872q-51.9524 0 -88.7477 36.7538q-36.7953 36.7538 -36.7953 88.7892q0 51.9518 36.7538 88.7469q36.7538 36.7951 88.7892 36.7951h207.872v207.872z" />
    <glyph glyph-name="uniF006" unicode="&#xf006;" 
d="M577.792 1261.22q0 184.791 130.667 315.457q130.666 130.665 315.457 130.665q184.789 0 315.455 -130.665q130.666 -130.666 130.666 -315.457q0 -184.789 -130.666 -315.456q-130.666 -130.666 -315.455 -130.666q-184.791 0 -315.457 130.666
q-130.667 130.666 -130.667 315.456zM130.822 259.987q193.896 186.648 421.206 287.146q227.309 100.499 471.888 100.499q244.693 0 472.025 -100.494q227.33 -100.494 421.236 -287.15q-130.24 -243.021 -369.049 -389.065q-238.809 -146.044 -524.213 -146.044
q-285.291 0 -524.074 146.05q-238.784 146.049 -369.02 389.06z" />
  </font>
</defs>
</svg>
